<?xml version="1.0" encoding="utf-8"?>
<!-- Generator: Adobe Illustrator 24.0.2, SVG Export Plug-In . SVG Version: 6.00 Build 0)  -->
<svg version="1.1" id="Calque_1" xmlns="http://www.w3.org/2000/svg" xmlns:xlink="http://www.w3.org/1999/xlink" x="0px" y="0px"
	 viewBox="0 0 2500 2500" style="enable-background:new 0 0 2500 2500;" xml:space="preserve">
<style type="text/css">
	.st0{fill:#FFFFFF;}
</style>
<title>behance</title>
<path class="st0" d="M1003.7,1007.3c0.1,47.6-14.2,81.9-42.8,103.1c-28.6,21.1-65.1,31.7-109.5,31.7l-252.2,0.2v-265h233.1
	c21.6-0.1,43.1,1.8,64.3,5.5c20.6,3.7,38.8,10.3,54.7,19.8c15.9,9.5,28.6,22.8,38.1,39.7C998.9,959.2,1003.7,980.9,1003.7,1007.3z"
	/>
<path class="st0" d="M1049.8,1473.7c0,29.6-5.1,54-15.1,73c-10.1,19-23.6,34.1-40.5,45.2c-16.9,11.1-36.5,19-58.7,23.8
	c-22.9,4.8-46.3,7.2-69.8,7.1l-266.5,0.1v-311h271.3c53.9,0,97.3,12.4,130.1,37.3C1033.4,1374,1049.8,1415.6,1049.8,1473.7z"/>
<path class="st0" d="M1867,1167.5c-27-29.6-68-44.4-123-44.4c-36,0-65.9,6.1-89.6,18.2c-23.8,12.2-42.8,27.2-57.1,45.2
	c-14.3,18-24.3,37-30.1,57.1c-5.8,20.1-9.3,38.1-10.3,53.9h366.5C1912.7,1240.5,1893.9,1197.1,1867,1167.5z M1867,1167.5
	c-27-29.6-68-44.4-123-44.4c-36,0-65.9,6.1-89.6,18.2c-23.8,12.2-42.8,27.2-57.1,45.2c-14.3,18-24.3,37-30.1,57.1
	c-5.8,20.1-9.3,38.1-10.3,53.9h366.5C1912.7,1240.5,1893.9,1197.1,1867,1167.5z M1867,1167.5c-27-29.6-68-44.4-123-44.4
	c-36,0-65.9,6.1-89.6,18.2c-23.8,12.2-42.8,27.2-57.1,45.2c-14.3,18-24.3,37-30.1,57.1c-5.8,20.1-9.3,38.1-10.3,53.9h366.5
	C1912.7,1240.5,1893.9,1197.1,1867,1167.5z M1867,1167.5c-27-29.6-68-44.4-123-44.4c-36,0-65.9,6.1-89.6,18.2
	c-23.8,12.2-42.8,27.2-57.1,45.2c-14.3,18-24.3,37-30.1,57.1c-5.8,20.1-9.3,38.1-10.3,53.9h366.5
	C1912.7,1240.5,1893.9,1197.1,1867,1167.5z M1250,0C559.6,0,0,559.6,0,1250s559.6,1250,1250,1250s1250-559.6,1250-1250
	S1940.4,0,1250,0z M1518.3,741.1h457.9v127h-457.9V741.1z M1265.6,1636.5c-22.2,41.8-52.1,75.9-89.7,102.3
	c-37.6,26.5-80.4,46-128.5,58.7c-48.4,12.7-98.3,19.1-148.3,19H350V683.6h533.1c53.9,0,103.1,4.8,147.6,14.3
	c44.5,9.5,82.5,25.1,114.2,46.8c31.7,21.7,56.3,50.5,73.8,86.5s26.2,80.4,26.2,133.3c0,57.1-13,104.7-38.9,142.8
	c-25.9,38.1-64.3,69.3-115,93.6c69.8,20.1,121.9,55.3,156.3,105.5c34.4,50.2,51.6,110.8,51.6,181.7
	C1298.9,1545.2,1287.8,1594.7,1265.6,1636.5z M1612.3,1599c33.8,32.8,82.5,49.2,146,49.2c45.5,0,84.6-11.4,117.4-34.1
	c32.8-22.7,52.9-46.8,60.3-72.2h198.3c-31.7,98.4-80.4,168.7-146,211c-65.6,42.3-144.9,63.5-238,63.5c-64.5,0-122.7-10.3-174.5-30.9
	c-51.8-20.6-95.7-50-131.7-88.1s-63.8-83.5-83.3-136.4s-29.3-111.1-29.3-174.5c0-61.3,10-118.4,30.1-171.3
	c20.1-52.9,48.7-98.6,85.7-137.2s81.2-69,132.5-91.2c51.3-22.2,108.2-33.3,170.6-33.3c69.8,0,130.6,13.5,182.5,40.5
	c51.8,27,94.4,63.2,127.7,108.7c33.3,45.5,57.4,97.3,72.2,155.5c14.8,58.2,20.1,119,15.9,182.5h-591.8
	C1560,1513.4,1578.5,1566.3,1612.3,1599z M1744,1123.1c-36,0-65.9,6.1-89.6,18.2c-23.8,12.2-42.8,27.2-57.1,45.2
	c-14.3,18-24.3,37-30.1,57.1c-5.8,20.1-9.3,38.1-10.3,53.9h366.5c-10.7-57-29.5-100.4-56.4-130C1840,1137.9,1799,1123.1,1744,1123.1
	z M1867,1167.5c-27-29.6-68-44.4-123-44.4c-36,0-65.9,6.1-89.6,18.2c-23.8,12.2-42.8,27.2-57.1,45.2c-14.3,18-24.3,37-30.1,57.1
	c-5.8,20.1-9.3,38.1-10.3,53.9h366.5C1912.7,1240.5,1893.9,1197.1,1867,1167.5z M1867,1167.5c-27-29.6-68-44.4-123-44.4
	c-36,0-65.9,6.1-89.6,18.2c-23.8,12.2-42.8,27.2-57.1,45.2c-14.3,18-24.3,37-30.1,57.1c-5.8,20.1-9.3,38.1-10.3,53.9h366.5
	C1912.7,1240.5,1893.9,1197.1,1867,1167.5z"/>
</svg>
