<svg fill="none" height="2030" viewBox="-8 -2.89 819.87499843 654.801" width="2500" xmlns="http://www.w3.org/2000/svg"><path d="m418.47 366.596c1.487-26.724 14.593-50.293 34.336-67.007 19.393-16.415 45.478-26.421 73.934-26.439 28.456.018 54.541 10.024 73.934 26.439 19.743 16.714 32.849 40.283 34.354 67.007 1.505 27.481-9.529 53.036-28.918 71.949-19.747 19.249-47.886 31.344-79.352 31.344-31.484 0-59.641-12.095-79.406-31.344-19.371-18.913-30.405-44.468-28.882-71.949z" fill="#005385"/><path d="m246.008 420.711c.181 10.431 3.541 30.763 8.536 46.68 10.518 33.61 28.37 64.727 53.231 92.154 25.5 28.156 56.862 50.805 93.128 66.848 38.126 16.896 79.443 25.518 122.278 25.432 42.854-.072 84.148-8.835 122.274-25.835 36.235-16.221 67.596-38.923 93.078-67.153 24.825-27.535 42.641-58.702 53.177-92.33a233.25 233.25 0 0 0 10.005-51.531 234.814 234.814 0 0 0 -1.646-51.177c-4.728-33.238-16.238-64.441-33.928-92.883-16.242-26.117-37.1-48.997-61.93-68.264l.037-.036-250.522-192.382c-.21-.18-.421-.359-.635-.534-16.488-12.59-44.114-12.553-62.175.09-18.31 12.802-20.363 33.928-4.125 47.297l-.054.036 104.498 85-318.54.336h-.44c-26.316.018-51.603 17.322-56.635 39.136-5.118 22.245 12.77 40.678 40.129 40.782l-.036.109 161.446-.318-288.112 221.123c-.354.281-.744.549-1.097.83-27.15 20.808-35.95 55.429-18.846 77.334 17.39 22.277 54.31 22.295 81.782.091l157.23-128.652s-2.285 17.372-2.108 27.817zm404.016 58.14c-32.386 33.044-77.719 51.744-126.825 51.83-49.123.09-94.475-18.469-126.883-51.426-15.831-16.076-27.463-34.513-34.653-54.219a141.005 141.005 0 0 1 -7.952-60.548 143.216 143.216 0 0 1 17.372-57.038c9.475-17.177 22.49-32.69 38.552-45.828 31.484-25.677 71.558-39.562 113.528-39.617 41.97-.05 82.027 13.727 113.529 39.295 16.043 13.07 29.059 28.529 38.515 45.674a143.23 143.23 0 0 1 17.408 56.984 141.144 141.144 0 0 1 -7.969 60.561c-7.172 19.729-18.791 38.198-34.622 54.332z" fill="#ff7021"/></svg>