<?xml version="1.0" encoding="UTF-8" standalone="no"?>
<!DOCTYPE svg PUBLIC "-//W3C//DTD SVG 1.1//EN" "http://www.w3.org/Graphics/SVG/1.1/DTD/svg11.dtd">
<svg width="100%" height="100%" viewBox="0 0 1800 1800" version="1.1" xmlns="http://www.w3.org/2000/svg" xmlns:xlink="http://www.w3.org/1999/xlink" xml:space="preserve" xmlns:serif="http://www.serif.com/" style="fill-rule:evenodd;clip-rule:evenodd;stroke-linejoin:round;stroke-miterlimit:2;">
    <g transform="matrix(0.854546,0,0,0.854546,68.9548,158.49)">
        <path d="M581.228,1545.18C507.151,1486.9 428.113,1431.06 374.116,1352.37C260.448,1213.61 172.953,1052.99 113.137,884.165C76.972,774.379 64.588,656.684 17.938,551.16C-30.793,474.492 26.333,390.743 110.303,366.385C147.66,359.182 213.388,323.914 134.045,349.153C62.901,401.319 56.048,301.744 128.985,295.438C178.765,288.836 197.091,248.105 180.049,211.438C126.592,176.565 309.627,138.303 217.521,86.282C121.638,-17.198 351.696,-37.119 294.926,80.424C281.356,170.799 455.738,63.824 415.242,168.208C456.384,218.345 569.262,179.642 566.428,249.936C626.343,254.054 646.91,304.434 703.095,308.308C761.422,334.642 867.052,355.353 886.867,421.035C829.049,466.796 695.201,326.497 688.735,453.188C706.225,640.379 701.765,833.2 770.228,1011.45C802.609,1119.37 881.153,1204.32 952.047,1288.38C1019.92,1370.7 1111.83,1428.68 1205.53,1477.47C1287.7,1516.21 1376.29,1541.89 1465.86,1558.05C1502.18,1530.27 1566.31,1426.99 1622.94,1470.51C1625.68,1519.5 1510.53,1572.86 1617.54,1567.44C1680.43,1548.46 1724.01,1616.02 1775.77,1555.06C1823.47,1611.56 1973.99,1519 1940.07,1634.46C1894.16,1664.07 1827.24,1646.18 1781.29,1686.93C1705.53,1649.07 1645.2,1720.76 1561.3,1711.72C1468.15,1728.4 1373.35,1735.12 1278.91,1735.26C1123.95,1723.03 965.723,1717.87 818.313,1663.91C735.248,1639.78 654.219,1592.48 581.228,1545.18ZM712.09,1601.92C793.173,1636.94 872.469,1673.9 961.347,1685.08C1102.34,1704.66 1247.95,1734.86 1389.44,1707.34C1325.41,1678.43 1259.18,1718.57 1195.39,1686.67C1118.88,1703.12 1036.77,1682.45 958.953,1672.26C870.517,1632.88 775.045,1605.8 692.222,1554.61C588.682,1516.81 745.733,1603.11 773.7,1610.12C838.386,1646.82 702.548,1591.28 683.364,1576.03C629.177,1545.62 622.278,1551.98 678.015,1582.84C689.237,1589.4 700.322,1596.31 712.09,1601.92ZM557.782,1492.87C636.38,1521.98 557.432,1437.62 521.465,1442.49C505.51,1414.82 460.509,1397.33 492.252,1382.47C435.171,1402.3 432.436,1307.1 405.616,1320.73C345.2,1301.65 382.109,1234.08 310.121,1192.55C303.557,1148.82 238.627,1110.92 217.962,1044.99C208.822,1011.21 144.583,914.282 184.03,1004.49C217.612,1091.33 276.684,1165.77 325.871,1240.04C364.027,1310.77 409.141,1384.76 478.645,1428.88C502.099,1451.38 524.694,1485.81 557.774,1492.87L557.782,1492.87ZM903.962,1638.98C936.153,1659.3 1091.91,1683.49 994.389,1647.32C978.031,1650.75 813.542,1600.77 903.962,1638.98ZM548.247,1350.18C586.007,1379.14 700.58,1353.91 606.073,1332.9C563.1,1309.99 466.223,1294.3 532.261,1346.71L548.247,1350.18ZM731.069,1447.05C823.381,1473.14 653.421,1388.63 708.276,1437.42L720.455,1442.93L731.069,1447.05ZM731.875,1398.13C798.939,1406.76 652.038,1352.47 717.12,1393.25L731.875,1398.13ZM964.971,1541.45C1027.63,1504.05 1006.96,1629.15 1071.25,1552.04C1134.64,1505.74 1016.5,1609.27 1094.6,1560.29C1151.14,1522.48 1234.6,1578.22 1287.32,1596.35C1325.21,1594.52 1362.09,1629.15 1400.98,1608.07C1475.8,1587.9 1254.62,1578.17 1312.59,1542.44C1244.14,1562.38 1193.57,1518.7 1159.88,1474.83C1083.07,1457.09 994.29,1417.85 955.937,1349.83C940.286,1324.35 978.502,1353.46 942.428,1311.73C896.174,1270.59 873.077,1223.83 842.018,1173.81C804.903,1154.03 800.535,1095.76 796.804,1171.88C797.108,1123.83 751.993,1091.49 740.961,1104.91C740.764,1058.64 789.26,1081.85 755.321,1047.62C748.027,999.672 723.973,949.703 716.763,895.547C705.549,869.464 715.167,813.575 678.418,872.64C665.046,935.092 673.996,795.934 694.813,841.793C722.134,794.992 684.967,800.5 683.478,806.965C701.271,767.473 694.76,711.425 678.813,732.79C688.302,690.904 693.818,578.679 664.658,598.6C682.338,554.784 698.194,398.174 621.374,457.906C590.277,458.347 536.379,469.189 510.942,481.854C590.779,525.875 502.889,497.748 470.348,490.743C466.124,531.482 433.933,513.893 393.688,514.289C457.979,522.236 362.385,580.008 325.582,557.565C277.687,580.419 366.868,637.553 326.524,655.233C331.501,681.817 253.192,645.606 259.308,707.109C212.848,687.523 252.949,780.039 276.198,748.745C355.244,770.155 331.843,818.894 333.826,865.239C320.955,892.211 270.233,801.799 322.543,805.978C281.258,738.944 276.897,781.726 242.608,812.876C234.661,815.118 330.05,857.186 270.188,877.958C322.847,886.11 324.39,932.213 335.125,961.38C366.769,994.354 360.25,924.949 398.17,964.609C374.162,929.28 271.176,865.08 354.104,885.67C353.648,850.143 339.091,821.469 364.528,822.161C389.722,776.605 338.149,934.545 394.888,876.621C410.577,869.768 414.513,831.012 442.731,880.298C483.712,920.642 457.538,949.839 399.705,912.884C410.038,948.008 477.057,960.522 464.437,1015.43C477.794,1063.72 496.484,1045.93 512.773,1043.15C525.537,1090.05 532.808,1055.57 533.401,1033.21C591.873,1045.75 578.159,1080.31 596.484,1104.46C636.775,1122.63 538.811,981.195 607.972,1061.93C680.742,1127.65 635.293,1155.08 569.969,1144.55C611.3,1141.21 624.603,1200.45 676.336,1198.36C723.479,1220.81 755.427,1306.96 674.148,1271.08C645.976,1245.65 546.158,1214.3 627.696,1262.64C702.912,1297.52 762.729,1318.33 835.309,1362.11C887.232,1399.17 909.675,1441.64 929.353,1450.05C885.689,1470.9 797.807,1433.4 863.079,1421.93C822.34,1414.52 776.541,1393.91 815.532,1444.63C848.719,1472.35 933.03,1469.41 948.188,1472.54C935.37,1500.77 913.367,1503.01 948.681,1505.19C909.28,1526.2 961.354,1529.49 964.978,1541.45L964.971,1541.45ZM884.39,1313.87C860.397,1288.78 854.189,1241.83 880.12,1282.65C893.439,1288.03 922.705,1359.43 884.39,1313.87ZM730.682,1060.74C702.115,996.747 750.952,1025.76 737.041,1071.22L730.682,1060.74ZM467.621,885.305C454.856,864.297 433.735,802.688 440.543,783.869C446.651,814.518 505.677,915.718 469.452,825.8C429.465,750.431 517.302,850.234 526.343,869.069C530.567,887.751 501.65,863.955 521.222,907.817C485.505,857.885 500.154,935.396 467.621,885.305ZM334.92,773.832C304.658,743.715 282.747,715.999 336.356,755.142C356.976,755.94 290.458,692.104 341.332,734.871C394.782,744.619 367.704,822.571 334.92,773.832ZM353.055,727.73C265.075,649.367 463.594,768.658 367.415,742.226L353.055,727.73ZM605.184,874.182C567.081,851.374 595.048,713.469 608.071,807.763C645.087,795.782 606.019,856.502 633.599,855.902C629.283,894.194 616.914,907.976 605.184,874.182ZM370.287,701.989C313.76,623.984 534.586,780.875 406.513,721.765C393.141,718.24 377.003,716.994 370.287,701.989ZM378.986,672.229C412.576,665.026 518.191,731.202 421.214,691.109C410.441,679.18 387.435,684.598 378.986,672.221L378.986,672.229ZM667.477,816.007C671.071,748.843 687.565,775.914 667.629,825.648L667.477,815.999L667.477,816.007ZM403.975,648.835C417.681,628.755 367.597,558.066 411.17,623.49C430.012,638.442 465.668,648.532 434.176,654.838C483.705,698.517 422.111,666.667 403.975,648.835ZM622.955,612.861C605.472,582.098 645.026,477.227 649.448,542.263C631.008,592.939 644.129,621.264 656.939,553.295C680.697,499.838 651.826,658.872 622.955,612.861ZM695.353,1362.51C745.376,1375.38 745.133,1354.75 699.911,1348.59C675.622,1325.99 598.862,1301.99 667.576,1345.81C672.104,1357.34 686.463,1357.04 695.353,1362.51ZM517.795,1244.55C545.314,1265.13 621.572,1302.78 557.037,1252.42C578.797,1227.12 515.402,1213.66 536.425,1196.73C482.915,1163.97 494.182,1166.9 531.707,1167.95C467.415,1139.18 540.991,1141.37 537.519,1126.62C512.728,1121.74 414.353,1082.89 472.232,1129.8C413.411,1099.83 458.215,1140.97 440.436,1136.65C380.263,1120.26 494,1182.46 430.893,1167.01C465.379,1194.33 523.752,1237.06 445.451,1195.92C435.171,1210.77 501.498,1233.29 517.788,1244.55L517.795,1244.55ZM1142.73,1611.06C1169.11,1585.53 1143.83,1651.79 1186.45,1604.8C1186.89,1571.16 1185.16,1551.3 1137.47,1592.18C1124.29,1599.49 1118.44,1630.43 1142.73,1611.06ZM710.7,1333.69C740.072,1359.78 845.49,1352.82 746.333,1336.92C731.669,1315.21 653.125,1320.43 710.7,1333.69ZM227.299,1008.97C184.676,948.16 200.821,920.832 159.688,871.15C151.877,833.147 89.143,746.997 127.246,838.26C162.119,891.672 172.452,974.334 227.307,1008.97L227.299,1008.97ZM1257.89,1628.3C1302.5,1599.54 1247.61,1603.95 1249.8,1630.92L1257.89,1628.3ZM1329.48,1647.73C1386.66,1606.48 1294.86,1639.82 1317.51,1655.58L1329.48,1647.73ZM370.287,1036.39C412.165,1045.78 537.755,1139.58 463.685,1042.9C425.735,1031.67 448.49,938.914 409.787,955.31C435.771,998.73 431.137,1017.15 376.585,989.841C308.085,956.351 338.088,1006.39 351.513,1020.2C333.218,1024.37 375.651,1036.05 370.279,1036.38L370.287,1036.39ZM179.358,885.616C186.857,854.557 110.25,714.905 143.193,815.612C155.061,836.725 153.83,876.712 179.358,885.616ZM1490.4,1609.32C1531.88,1600.92 1626.43,1630.44 1641.68,1598.35C1591.31,1597.1 1467.45,1562.77 1461.58,1606.48L1472.62,1608.23L1490.41,1609.32L1490.4,1609.32ZM198.451,707.299C240.283,690.904 122.277,673.315 189.903,704.222L198.451,707.299ZM67.824,561.196C60.272,517.875 61.313,441.807 133.605,467.495C37.115,486.671 200.426,587.462 179.806,507.876C220.393,509.874 259.202,483.89 237.883,523.277C317.871,514.486 373.273,445.135 450.518,454.875C510.676,446.882 576.457,440.865 641.295,416.621C694.601,412.791 745.915,355.406 716.717,321.376C644.031,315.222 567.91,324.309 487.58,340.31C398.558,358.787 317.681,393.957 227.846,409.069C140.253,420.845 245.435,441.457 220.34,446.077C174.678,461.926 274.845,472.608 214.429,489.345C177.124,482.249 138.27,469.432 154.217,430.084C70.354,441.009 -3.373,475.784 62.909,561.136L67.832,561.181L67.824,561.196ZM269.983,458.248C289.607,385.82 375.301,517.875 302.174,467.89C293.475,461.325 279.062,456.007 269.983,458.248ZM309.817,423.724C312.416,390.386 392.351,441.359 322.992,435.698L309.817,423.717L309.817,423.724ZM371.731,395.461C401.734,359.441 541.485,372.448 439.19,391.921C411.763,371.255 390.755,404.092 371.731,395.461ZM605.928,367.031C624.846,317.456 679.398,347.117 614.719,357.047C616.102,362.366 612.781,382.69 605.928,367.031ZM1823.12,1609.97C1868.29,1610.12 1959.98,1595.9 1861.71,1595.95C1846.27,1598.35 1771.85,1597.85 1823.12,1609.97ZM266.754,621.294C303.321,618.81 323.934,580.996 259.642,583.139C160.037,572.859 347.524,617.275 246.878,604.556C233.37,613.499 265.948,623.778 266.754,621.294ZM215.523,332.507C280.809,310.352 370.036,285.409 400.845,343.448C369.489,305.74 388.179,268.573 417.788,323.77C459.666,379.567 480.62,298.386 453.398,279.65C484.457,318.201 519.725,336.443 474.162,282.097C523.699,222.523 375.051,289.892 341.272,289.193C325.028,296.487 173.447,327.842 215.53,332.507L215.523,332.507ZM253.777,259.288C290.998,231.223 382.504,276.026 323.782,231.359C318.023,226.299 195.214,265.245 253.777,259.288ZM389.463,264.895C432.983,265.99 370.69,206.371 422.551,233.396C414.057,205.581 362.142,200.361 336.759,189.238C322.399,214.675 365.956,265.245 389.463,264.895ZM333.036,154.988C403.223,145.703 315.136,124.787 318.858,154.251L333.028,154.988L333.036,154.988ZM229.48,74.012C180.042,9.477 322.437,84.846 272.201,17.273C229.928,-16.355 189.341,55.185 229.48,74.012ZM863.656,415.58C886.327,375.426 770.114,361.424 848.407,401.357C855.61,403.75 853.984,418.353 863.656,415.58Z" style="fill:white;fill-rule:nonzero;"/>
    </g>
</svg>
