<svg xmlns="http://www.w3.org/2000/svg" xmlns:xlink="http://www.w3.org/1999/xlink" viewBox="0 0 800 800"><defs><linearGradient id="Degradado_sin_nombre_2" x1="203.95" y1="-71" x2="647.35" y2="697" gradientUnits="userSpaceOnUse"><stop offset="0" stop-color="#ff153c"/><stop offset="1" stop-color="#e61010"/></linearGradient></defs><title>davidarias_logo</title><g id="Capa_2" data-name="Capa 2"><g id="Icon_Dark"><g id="Logo"><path d="M229.17,723.61A76.35,76.35,0,0,1,152.78,800h0a76.39,76.39,0,0,1,0-152.77h0A76.39,76.39,0,0,1,229.17,723.61Z" fill="#fff"/><g id="CodeLines"><rect x="191.72" y="264.7" width="230" height="70" rx="35" fill="#fff"/><rect x="272.13" y="364.7" width="230" height="70" rx="35" fill="#fff"/><rect x="412.78" y="464.7" width="70" height="70" rx="35" fill="#fff"/></g><path d="M800,398.28v3.44a398.14,398.14,0,0,1-85.53,245.51C641.23,740.26,527.59,800,400,800H381.93a76.38,76.38,0,0,1-76.38-76.38h0a76.38,76.38,0,0,1,76.38-76.38h16.15c136.48,0,249.64-111.66,249.15-248.14C646.74,263,536.24,152.77,400,152.77H152.77A152.77,152.77,0,0,1,0,0H401.72c126.9.53,239.85,60.15,312.76,152.77A398.21,398.21,0,0,1,800,398.28ZM521.72,299.7h0a35,35,0,0,0-35-35h0a35,35,0,0,0-35,35h0a35,35,0,0,0,35,35h0A35,35,0,0,0,521.72,299.7Zm-279.59,100h0a35,35,0,0,0-35-35h0a35,35,0,0,0-35,35h0a35,35,0,0,0,35,35h0A35,35,0,0,0,242.13,399.7Zm140.65,100h0a35,35,0,0,0-35-35h-160a35,35,0,0,0-35,35h0a35,35,0,0,0,35,35h160A35,35,0,0,0,382.78,499.7Z" fill="url(#Degradado_sin_nombre_2)"/></g></g></g></svg>