<?xml version="1.0" encoding="utf-8"?>
<!-- Generator: Adobe Illustrator 24.0.2, SVG Export Plug-In . SVG Version: 6.00 Build 0)  -->
<svg version="1.1" id="Layer_1" xmlns="http://www.w3.org/2000/svg" xmlns:xlink="http://www.w3.org/1999/xlink" x="0px" y="0px"
	 viewBox="0 0 2500 2500" style="enable-background:new 0 0 2500 2500;" xml:space="preserve">
<style type="text/css">
	.st0{fill:#EB524F;}
	.st1{fill:#FFFFFF;}
</style>
<title>Udemy</title>
<rect x="0.2" class="st0" width="2500" height="2500"/>
<path class="st1" d="M987.2,580.7c73.3,22.8,96.1,81.6,96.1,148.6c-0.6,53.1-7,106.2-19.6,158.1c-27.2,118.2-60.7,235.2-88.5,352.8
	c-22.8,96.7-43.6,194.7-44.3,294.6c0.6,27.2,5.1,54.4,12.6,80.3c14.5,51.8,58.2,55.6,91.1,24c20.9-20.2,39.8-41.7,56.9-65.1
	c82.2-109.4,154.9-225.7,216.9-347.8c60.1-117,197.3-381.3,205.5-397.1c43-79,161.9-65.8,197.9,11.4c20.2,41.7,31.6,87.9,33.5,134
	c3.2,99.9,12.6,378.7,17.1,418.6c8.2,77.1,57.5,101.8,123.3,58.8c39.8-25.9,75.9-58.8,111.9-89.8c33.5-29.7,51.2-26.6,67.7,15.2
	c14.5,36.7,8.2,73.3-3.8,108.1c-40.5,117.6-128.4,180.2-245.3,205.5c-37.3,8.2-75.9,8.9-113.8,2.5
	c-84.1-13.9-137.8-62.6-170.1-137.8c-31-72.7-40.5-279.5-47.4-306c-11.4,24-146.1,301.6-216.9,407.2c-44.3,67.7-98,129-160,181.5
	c-61.3,51.2-130.9,82.8-212.5,84.7c-98.6,2.5-170.1-42.4-219.4-125.8c-31.6-53.7-44.9-113.8-49.3-175.8
	c-6.3-86.6,7.6-171.4,26.6-256.1c6.3-27.2,10.7-55,17.7-89.8c-27.2,13.9-44.9,26.6-65.1,33.5c-24,8.2-50,16.4-75.2,15.8
	c-89.8-2.5-103.1-101.8-103.1-118.2c30.4-23.4,62.6-44.9,90.4-70.2C650.8,1016.3,750.7,872.2,822.8,709
	c24-53.7,53.7-99.9,106.9-128.4C947.3,573.1,963.2,572.4,987.2,580.7z"/>
</svg>
