<?xml version="1.0" encoding="utf-8"?>
<!-- Generator: Adobe Illustrator 24.0.2, SVG Export Plug-In . SVG Version: 6.00 Build 0)  -->
<svg version="1.1" id="Capa_1" xmlns="http://www.w3.org/2000/svg" xmlns:xlink="http://www.w3.org/1999/xlink" x="0px" y="0px"
	 viewBox="0 0 2500 2500" style="enable-background:new 0 0 2500 2500;" xml:space="preserve">
<style type="text/css">
	.st0{fill:#D02726;}
	.st1{fill:#FFFFFF;}
</style>
<rect class="st0" width="2500" height="2500"/>
<path class="st1" d="M619.2,1495c-15.2-5.2-25.5-12.3-38.2-26c-26.6-28.8-28.1-37.4-28.1-165.4c0-123.3,1.9-135,26.7-163.9
	c34.7-40.6,115.1-39.4,149.4,2.2c22.8,27.6,24.6,40,24.6,163.6c0,97.8-0.8,114.1-6.8,131.3c-9.1,26.2-36.1,51.6-63.5,59.7
	C657.6,1504.1,644.8,1503.9,619.2,1495L619.2,1495z M666.4,1435.7c15.5-5.9,17.2-19,17.2-129.8c0-70.8-1.4-109.2-4.3-115.4
	c-9.6-21-42.5-21-52,0c-2.9,6.3-4.3,44.7-4.3,115.4c0,123.7,1.6,130.9,29,131.9C656.5,1437.9,663,1437,666.4,1435.7L666.4,1435.7z
	 M834.6,1493c-5.5-3-13.1-11.8-17-19.7c-6.6-13.3-7.2-26.9-8.3-187.6l-1.1-173.3h72.3V1271c0,135.7,0.8,159.3,5.6,163.3
	c8.4,7,22,1.9,37.4-14l13.7-14.1v-293.7h72v382.5h-72v-38.5l-18,16c-9.9,8.8-23.5,18.3-30.2,21.2
	C873.5,1500.1,847.3,1499.9,834.6,1493z M395.7,1389.8l-0.1-105.1l-46.8-149.6L302,985.5l38-1.1c22.3-0.6,39,0.5,40.3,2.7
	c1.3,2.1,13.3,45.6,26.8,96.7c13.5,51.1,25.4,93,26.4,93c1.1,0,11-34.5,22.1-76.7c11.1-42.2,22.7-85.6,25.8-96.6l5.7-19.9h39.9
	c32.5,0,39.5,1,37.9,5.3c-1.1,2.9-22.6,71-47.7,151.3l-45.7,146.1v208.6h-75.7L395.7,1389.8L395.7,1389.8z"/>
<path class="st1" d="M1380.9,1642.4c-185-6.2-235.1-19.3-269.2-70.8c-13.8-20.8-29.2-67.3-34.1-102.7c-17.3-124.5-13-384,7.7-473.5
	c18.8-81,63-120.7,143.7-129c79.2-8.1,285.7-12.5,486.6-10.4c216.9,2.3,319,6.9,355.9,16.2c72.3,18.1,107.3,71.3,119.5,181.5
	c2.3,20.8,5.2,93.6,6.3,161.6c4.7,274.7-16,362.1-94.8,400.7c-29.7,14.6-49.2,17.9-133.3,22.9
	C1878,1644.3,1505.5,1646.5,1380.9,1642.4L1380.9,1642.4z M1471.9,1492.7c6.4-3.3,19.1-12.9,28.2-21.3l16.6-15.3v38.8h72v-378.7h-72
	V1405l-16.5,16.5c-17.8,17.8-24.9,20-34.3,10.6c-5.2-5.2-6-25.1-6-161v-155h-72v164.1c0,181,1.5,195.3,21.8,210.5
	C1422.7,1500.3,1455.1,1501.3,1471.9,1492.7z M1818.3,1491.4c6.6-4,15.8-15.3,20.8-25.5c8.9-18,9.1-20.5,10.3-143.3
	c1.4-134.6-0.8-158.9-16.6-186.1c-8.8-15.2-29.7-27.9-45.8-27.9c-15.5,0-37.8,10.4-54.7,25.7l-18.5,16.7V987.4h-68.2v507.5h68.2v-35
	l15.5,14c8.6,7.7,20.9,16.4,27.5,19.2C1774.3,1500.8,1804.3,1500,1818.3,1491.4L1818.3,1491.4z M1727.9,1429.7l-14.2-8.2v-232.3
	l16.8-8.9c13.6-7.2,18.8-8.2,27.5-5.2c18.7,6.6,20.7,21,19.4,139.3l-1.2,105.4l-10.6,9.1C1752.5,1440.1,1746.2,1440.2,1727.9,1429.7
	L1727.9,1429.7z M2047,1490.8c36.6-16.6,53.1-44.7,56-95.3l1.9-33.2h-73v22.5c0,27.5-4.3,39.6-17,47.9c-14.3,9.4-32.2,3.4-40.8-13.7
	c-5.2-10.3-6.6-22.9-6.6-57.7l0-44.5h136.3v-55.6c0-70-5.5-92.3-29.1-118.5c-20.9-23.2-43.2-32.4-77-31.8
	c-28,0.5-46.7,7.5-66.4,24.7c-32.1,28.2-37,53.3-35.1,181.2c1.2,83.1,2.6,103.3,8,117.6c9.2,24.4,25.8,43,48.7,54.4
	C1978.8,1501.7,2021,1502.5,2047,1490.8L2047,1490.8z M1967.4,1231.5c0-47.1,12.1-63.2,42.5-56.5c15.3,3.4,21.9,20.4,21.9,56.5v28.5
	h-64.4L1967.4,1231.5L1967.4,1231.5z M1316,1277.1v-217.8h83.3v-72h-238.6v72h79.5v435.5h75.7V1277.1z"/>
</svg>
