<svg xmlns="http://www.w3.org/2000/svg" viewBox="0 0 1035.79 680"><title>rounded_shape</title><g id="Capa_2" data-name="Capa 2"><g id="rounded_shape_background"><g id="rounded_shape"><rect x="284.27" width="491.74" height="85" rx="42.5" fill="#fff"/><rect x="881.82" y="170" width="153.97" height="85" rx="42.5" fill="#fff"/><rect y="255" width="143.17" height="85" rx="42.5" fill="#fff"/><rect x="855.29" y="510" width="153.97" height="85" rx="42.5" fill="#fff"/><rect x="236.35" y="595" width="416.41" height="85" rx="42.5" fill="#fff"/><path d="M806,552.5a42.13,42.13,0,0,1-12.59,30A43.07,43.07,0,0,1,763,595H281.63A43.07,43.07,0,0,0,312,582.55a42.13,42.13,0,0,0,12.59-30c0-23.47-19.25-42.5-43-42.5H763C786.71,510,806,529,806,552.5Z" fill="#fff"/><path d="M750.41,510H210.47c-23.74,0-43-19-43-42.5a42.11,42.11,0,0,1,12.59-30.05A43.07,43.07,0,0,1,210.47,425H750.41a43.11,43.11,0,0,0-29.08,12.45,42.11,42.11,0,0,0-12.59,30.05A42.75,42.75,0,0,0,750.41,510Z" fill="#fff"/><path d="M909.23,382.5a42.11,42.11,0,0,1-12.59,30.05A43.06,43.06,0,0,1,866.24,425s-652,0-652.52,0a43.09,43.09,0,0,0,28.88-12.45,42.11,42.11,0,0,0,12.59-30.05A42.75,42.75,0,0,0,213.72,340H866.24C890,340,909.23,359,909.23,382.5Z" fill="#fff"/><path d="M795.24,340H212c-23.75,0-43-19-43-42.5a42.13,42.13,0,0,1,12.59-30.05A43.1,43.1,0,0,1,212,255H795.24a43.11,43.11,0,0,0-29.3,12.45,42.13,42.13,0,0,0-12.59,30.05C753.35,320.6,772,339.42,795.24,340Z" fill="#fff"/><path d="M855.29,212.5a42.13,42.13,0,0,1-12.59,30.05A43.07,43.07,0,0,1,812.3,255h-583A43,43,0,0,0,259,242.55a42.13,42.13,0,0,0,12.59-30.05c0-23.23-18.86-42.12-42.28-42.5h583C836,170,855.29,189,855.29,212.5Z" fill="#fff"/><path d="M687.19,170H192c-23.75,0-43-19-43-42.5a42.11,42.11,0,0,1,12.59-30A43.06,43.06,0,0,1,192,85h492.7c.84,0,1.68-.06,2.51,0a43.12,43.12,0,0,0-27.91,12.45,42.11,42.11,0,0,0-12.59,30.05A42.78,42.78,0,0,0,687.19,170Z" fill="#fff"/><rect x="944.44" y="340" width="85.99" height="85" rx="42.5" fill="#fff"/></g></g></g></svg>